<svg xmlns:xlink="http://www.w3.org/1999/xlink" xmlns="http://www.w3.org/2000/svg" width="20.008" height="20" viewBox="0 0 20.008 20"><defs><style>.a{fill:#767676;}</style></defs><path class="a" d="M0,9.664H.019c0,.017,0,.035,0,.052,0,.152,0,.3,0,.454a.938.938,0,0,1,0,.159H0Z" fill="#767676"></path><path class="a" d="M20.008,10.244H20v-.5h.009Z" fill="#767676"></path><path class="a" d="M10.229,20H9.791v-.011h.438Z" fill="#767676"></path><path class="a" d="M9.791,19.989V20H9.638v-.014a.033.033,0,0,1,.027-.007A.756.756,0,0,0,9.791,19.989Z" fill="#767676"></path><path class="a" d="M10.229,20v-.011c.033,0,.065,0,.1,0s.037-.012.055,0V20Z" fill="#767676"></path><path class="a" d="M10.382,19.986c-.018-.014-.036,0-.055,0s-.065,0-.1,0H9.791a.756.756,0,0,1-.126-.01.033.033,0,0,0-.027.007c-.222-.012-.445-.024-.666-.047a10.232,10.232,0,0,1-1.113-.179,9.911,9.911,0,0,1-2.488-.907,10.039,10.039,0,0,1-4.23-4.24c-.014-.027-.028-.054-.044-.087a.147.147,0,0,1,.062.018,1.491,1.491,0,0,0,.748.09c.059-.007.058-.008.091.048a9.3,9.3,0,0,0,5.253,4.176,8.987,8.987,0,0,0,1.315.3c.236.036.472.064.71.083.259.02.519.031.779.029s.547-.015.82-.04a9.289,9.289,0,0,0,7.877-6.123,9.044,9.044,0,0,0,.42-1.645c.035-.222.061-.444.082-.668a9.287,9.287,0,0,0,.031-1.081c-.009-.287-.031-.574-.066-.859A9,9,0,0,0,18.9,7.318a9.3,9.3,0,0,0-4.99-5.747A9.049,9.049,0,0,0,11.852.9c-.28-.056-.561-.1-.845-.13C10.752.742,10.5.728,10.24.718a8.244,8.244,0,0,0-.9.021A9.251,9.251,0,0,0,4.014,2.911,9.261,9.261,0,0,0,1.752,5.757a9.146,9.146,0,0,0-.83,2.348,9.476,9.476,0,0,0-.185,2.279,8.963,8.963,0,0,0,.206,1.6l0,.011c.016.041,0,.065-.034.091a1.313,1.313,0,0,0-.481.607l-.021.054c-.019,0-.017-.014-.02-.024a10.009,10.009,0,0,1-.225-.984Q.1,11.371.062,11c-.022-.223-.038-.447-.043-.672a.938.938,0,0,0,0-.159c0-.151,0-.3,0-.454,0-.017,0-.035,0-.052,0-.182.015-.363.031-.543C.072,8.881.1,8.643.139,8.4A10.007,10.007,0,0,1,5.76.945,9.735,9.735,0,0,1,8.058.19c.319-.063.64-.109.963-.143A10.288,10.288,0,0,1,10.4.007a9.237,9.237,0,0,1,1.075.1,9.778,9.778,0,0,1,2.256.609,10.007,10.007,0,0,1,6,6.943q.117.5.185,1c.037.276.06.552.077.83.005.086,0,.173.006.26v.5c0,.112,0,.225-.011.337-.019.3-.05.608-.095.91a9.762,9.762,0,0,1-.363,1.556,10.022,10.022,0,0,1-6.639,6.523,9.5,9.5,0,0,1-1.334.3c-.284.043-.569.077-.856.095Z" fill="#767676"></path><path class="a" d="M9.423,7.025c.091-.076.179-.152.27-.224a5.646,5.646,0,0,1,1.584-.9,4.444,4.444,0,0,1,1.108-.253,4.22,4.22,0,0,1,.49-.013A.959.959,0,0,1,13,5.657c.141.02.281.039.42.069a2.758,2.758,0,0,1,1.163.552,1.9,1.9,0,0,1,.556.766,3.961,3.961,0,0,1,.225.776c.025.125.047.251.064.378a2.053,2.053,0,0,1,.005.248c0,.467,0,.934.007,1.4.007.583.005,1.167.01,1.75.007.664.009,1.328.012,1.992,0,.239,0,.477.006.715,0,.058.011.061-.061.061l-1.945,0c-.031,0-.063,0-.094,0s-.036-.008-.035-.034c0-.053,0-.106.006-.16.011-.315.019-.63.031-.945.018-.447.031-.894.042-1.341q.01-.451.011-.9c0-.382-.006-.764-.024-1.146A10.293,10.293,0,0,0,13.3,8.786a4.319,4.319,0,0,0-.105-.5,1.08,1.08,0,0,0-.665-.74,1.748,1.748,0,0,0-.6-.129,3.434,3.434,0,0,0-.984.1,1.411,1.411,0,0,0-.386.159c-.011.007-.024.013-.036.019a1.307,1.307,0,0,0-.444.328c-.058.064-.115.129-.169.2a1.317,1.317,0,0,0-.236.524,3.59,3.59,0,0,0-.083.774c0,.254,0,.508,0,.762,0,.371-.007.741-.011,1.111,0,.209,0,.418,0,.627l-.006.922-.009,1.372c0,.01,0,.02,0,.029s-.01.028-.029.028H7.642c-.044,0-.044,0-.045-.047V5.709c0-.094-.011-.081.082-.081l1.655,0c.014,0,.028,0,.041,0,.043,0,.044,0,.044.042,0,.075,0,.15,0,.225,0,.366,0,.733,0,1.1A.043.043,0,0,0,9.423,7.025Z" fill="#767676"></path><path class="a" d="M3.055,13.606a7.859,7.859,0,0,0,4.956,3.958,7.7,7.7,0,0,0,5.552-.6A7.819,7.819,0,1,0,2.444,12.035a.094.094,0,0,1-.045-.021,1.4,1.4,0,0,0-.674-.174H1.7c-.028,0-.037-.009-.042-.036-.018-.1-.039-.193-.057-.289a8.226,8.226,0,0,1-.115-.938,9.061,9.061,0,0,1-.008-1.016,8.529,8.529,0,0,1,.1-.957,8.07,8.07,0,0,1,.442-1.639,8.5,8.5,0,0,1,4.1-4.576A8.163,8.163,0,0,1,8.358,1.61,8.574,8.574,0,0,1,9.8,1.453a7.961,7.961,0,0,1,1.1.043,8.56,8.56,0,0,1,7.379,6.333,8.27,8.27,0,0,1,.22,1.177,8.49,8.49,0,0,1,.053,1.275,8.38,8.38,0,0,1-.785,3.3A8.505,8.505,0,0,1,13.914,17.6a8.328,8.328,0,0,1-2.279.789,8.559,8.559,0,0,1-8.966-4.012.15.15,0,0,0-.015-.025c-.021-.026-.013-.043.01-.064a1.31,1.31,0,0,0,.346-.535C3.026,13.7,3.04,13.655,3.055,13.606Z" fill="#767676"></path><path class="a" d="M6.494,11.131v3.163c0,.087.009.074-.076.075H4.656c-.022,0-.033-.008-.032-.031s0-.031,0-.047V7.958c0-.081-.014-.074.076-.074q.862,0,1.726,0c.075,0,.067-.008.067.066Z" fill="#767676"></path><path class="a" d="M1.711,14.337a1.061,1.061,0,0,1-.782-.317,1.044,1.044,0,0,1-.286-.6,1.16,1.16,0,0,1,.1-.691,1,1,0,0,1,.733-.558,1.13,1.13,0,0,1,.628.045.983.983,0,0,1,.6.593,1.145,1.145,0,0,1-.05.972,1,1,0,0,1-.778.541A1.093,1.093,0,0,1,1.711,14.337Z" fill="#767676"></path><path class="a" d="M5.579,7.405H4.722a.2.2,0,0,0-.035,0c-.032,0-.042-.012-.039-.041,0-.01,0-.02,0-.03V5.691c0-.069-.011-.066.067-.066H6.453c.07,0,.065-.007.065.062V7.354c0,.05,0,.051-.052.051Z" fill="#767676"></path></svg>