<svg xmlns:xlink="http://www.w3.org/1999/xlink" xmlns="http://www.w3.org/2000/svg" width="41.1907" height="20" viewBox="0 0 41.1907 20"><defs><style>.a{fill:#767676;}</style></defs><title>img-logo-tld-bar-gray_info</title><path class="a" d="M36.9047,0H4.286A4.286,4.286,0,0,0,0,4.286H0V15.714A4.286,4.286,0,0,0,4.286,20H36.9047a4.286,4.286,0,0,0,4.286-4.286h0V4.286A4.286,4.286,0,0,0,36.9047,0ZM5.3333,17.2a2.4458,2.4458,0,0,1-1.7633.714A2.4242,2.4242,0,0,1,1.786,17.2a2.3667,2.3667,0,0,1-.714-1.7413,2.4843,2.4843,0,0,1,.692-1.7634,2.2617,2.2617,0,0,1,1.7187-.7333,2.5567,2.5567,0,0,1,1.808.7333,2.4,2.4,0,0,1,.1539,3.3907Q5.3909,17.1448,5.3333,17.2Zm5.304.6547H7.4247V7.44h3.2146V17.8567ZM10.388,5.3213A1.9092,1.9092,0,0,1,9.05,5.788a1.8775,1.8775,0,0,1-1.3333-.4833A1.557,1.557,0,0,1,7.2,4.124a1.5013,1.5013,0,0,1,.5187-1.18A1.9392,1.9392,0,0,1,9.052,2.486a1.9332,1.9332,0,0,1,1.338.458,1.5085,1.5085,0,0,1,.514,1.18,1.5508,1.5508,0,0,1-.5147,1.2007ZM21.8413,17.8547H18.6387v-5.788q0-2.4207-1.7294-2.4214a1.7159,1.7159,0,0,0-1.3733.6407,2.4409,2.4409,0,0,0-.5393,1.6273V17.854H11.782V7.44H15V9.088h.0407a3.6839,3.6839,0,0,1,3.3466-1.902q3.4587,0,3.4587,4.2927v6.378Zm5.0394,0H23.678V9.8107H21.9287V7.44h1.75V6.148A3.7506,3.7506,0,0,1,24.838,3.2813a4.4232,4.4232,0,0,1,3.1533-1.0886,5.5392,5.5392,0,0,1,1.6274.2033V4.8973a3.25,3.25,0,0,0-1.19-.244q-1.5466,0-1.546,1.6787V7.44h2.3806V9.81H26.8827v8.0467Zm11.494-1.2514a5.6617,5.6617,0,0,1-4.166,1.5054,5.6,5.6,0,0,1-4.0947-1.46,5.2923,5.2923,0,0,1-1.49-3.962A5.2921,5.2921,0,0,1,30.17,8.6433a5.8432,5.8432,0,0,1,4.1807-1.46,5.5333,5.5333,0,0,1,4.0666,1.46,5.1892,5.1892,0,0,1,1.4754,3.8607,5.5091,5.5091,0,0,1-1.516,4.102Z" fill="#767676"></path><path class="a" d="M34.292,9.648a2.1442,2.1442,0,0,0-1.77.7833,3.4539,3.4539,0,0,0-.6307,2.2174q0,3,2.4214,3,2.3093,0,2.3093-3.082Q36.6214,9.648,34.292,9.648Z" fill="#767676"></path></svg>